HIERARCHY
ROOT Hips
{
	OFFSET 0.00000 0.00000 0.00000
	CHANNELS 6 Xposition Yposition Zposition Zrotation Yrotation Xrotation 
	JOINT LHipJoint
	{
		OFFSET 0 0 0
		CHANNELS 3 Zrotation Yrotation Xrotation
		JOINT LeftHip
		{
			OFFSET 1.37590 -1.78394 0.89329
			CHANNELS 3 Zrotation Yrotation Xrotation
			JOINT LeftKnee
			{
				OFFSET 2.47928 -6.81178 0.00000
				CHANNELS 3 Zrotation Yrotation Xrotation
				JOINT LeftAnkle
				{
					OFFSET 2.63345 -7.23535 0.00000
					CHANNELS 3 Zrotation Yrotation Xrotation
					JOINT LeftToe
					{
						OFFSET 0.23938 -0.65768 2.27012
						CHANNELS 3 Zrotation Yrotation Xrotation
						End Site
						{
							OFFSET 0.00000 -0.00000 1.18363
						}
					}
				}
			}
		}
	}
	JOINT RHipJoint
	{
		OFFSET 0 0 0
		CHANNELS 3 Zrotation Yrotation Xrotation
		JOINT RightHip
		{
			OFFSET -1.33617 -1.78394 0.89329
			CHANNELS 3 Zrotation Yrotation Xrotation
			JOINT RightKnee
			{
				OFFSET -2.56922 -7.05888 0.00000
				CHANNELS 3 Zrotation Yrotation Xrotation
				JOINT RightAnkle
				{
					OFFSET -2.56568 -7.04915 0.00000
					CHANNELS 3 Zrotation Yrotation Xrotation
					JOINT RightToe
					{
						OFFSET -0.27533 -0.75646 2.18105
						CHANNELS 3 Zrotation Yrotation Xrotation
						End Site
						{
							OFFSET -0.00000 -0.00000 1.15233
						}
					}
				}
			}
		}
	}
	JOINT lowerback
	{
		OFFSET 0 0 0
		CHANNELS 3 Zrotation Yrotation Xrotation
		JOINT Chest
		{
			OFFSET 0.06190 2.15152 -0.00935
			CHANNELS 3 Zrotation Yrotation Xrotation
			JOINT Chest2
			{
				OFFSET 0.06334 2.15332 0.00872
				CHANNELS 3 Zrotation Yrotation Xrotation
				JOINT lowerneck
				{
					OFFSET 0 0 0
					CHANNELS 3 Zrotation Yrotation Xrotation
					JOINT Neck
					{
						OFFSET -0.04202 1.66908 0.23524
						CHANNELS 3 Zrotation Yrotation Xrotation
						JOINT Head
						{
							OFFSET 0.07510 1.69357 -0.24440
							CHANNELS 3 Zrotation Yrotation Xrotation
							End Site
							{
								OFFSET 0.02556 1.71719 -0.11000
							}
						}
					}
				}
				JOINT LeftCollar
				{
					OFFSET 0 0 0
					CHANNELS 3 Zrotation Yrotation Xrotation
					JOINT LeftShoulder
					{
						OFFSET 3.67168 1.26306 -0.41342
CHANNELS 3 Zrotation Xrotation Yrotation
						JOINT LeftElbow
						{
OFFSET 0 -4.685100 -0.000000
CHANNELS 3 Zrotation Xrotation Yrotation
							JOINT LeftWrist
							{
OFFSET 0 -3.396260 -0.000000
CHANNELS 3 Zrotation Xrotation Yrotation
								JOINT lhand
								{
									OFFSET 0 0 0
CHANNELS 3 Zrotation Xrotation Yrotation
									JOINT LFingers
									{
OFFSET 0 -0.486080 -0.000000
CHANNELS 3 Zrotation Xrotation Yrotation
										End Site
										{
OFFSET 0 -0.391890 -0.000000
										}
									}
								}
								JOINT LThumb
								{
OFFSET 0 0.000000 0.000000
CHANNELS 3 Zrotation Xrotation Yrotation
									End Site
									{
OFFSET 0 -0.397870 0.397870
									}
								}
							}
						}
					}
				}
				JOINT RightCollar
				{
					OFFSET 0 0 0
					CHANNELS 3 Zrotation Yrotation Xrotation
					JOINT RightShoulder
					{
						OFFSET -3.04136 1.42992 -0.76390
CHANNELS 3 Zrotation Xrotation Yrotation
						JOINT RightElbow
						{
OFFSET 0 -5.555760 -0.000000
CHANNELS 3 Zrotation Xrotation Yrotation
							JOINT RightWrist
							{
OFFSET 0 -3.327740 -0.000000
CHANNELS 3 Zrotation Xrotation Yrotation
								JOINT rhand
								{
									OFFSET 0 0 0
CHANNELS 3 Zrotation Xrotation Yrotation
									JOINT RFingers
									{
OFFSET 0 -0.507630 -0.000000
CHANNELS 3 Zrotation Xrotation Yrotation
										End Site
										{
OFFSET 0 -0.409260 -0.000000
										}
									}
								}
								JOINT RThumb
								{
OFFSET 0 0.000000 0.000000
CHANNELS 3 Zrotation Xrotation Yrotation
									End Site
									{
OFFSET 0 -0.415510 0.415510
									}
								}
							}
						}
					}
				}
			}
		}
	}
}
MOTION
Frames: 10
Frame Time: 0.008333333333333333
-9.664060 18.033853 1.090671 -474.617304 -88.659168 479.673314 0.000000 0.000000 0.000000 -18.637554 -8.757596 -11.281588 0.796911 5.698011 15.910712 0.068706 -2.242524 -4.678251 0.002068 0.294536 0.809289 0.000000 0.000000 0.000000 17.058465 5.530087 -20.675629 -8.945280 -16.772358 55.900583 0.692234 -14.618679 -3.879036 -0.001530 0.241472 -0.663414 2.023745 -1.442014 -0.628095 1.192007 -1.937178 -0.734939 0.082601 -0.979840 -0.426191 -13.662161 -11.220467 -10.584328 9.698096 -14.370356 10.514930 3.810808 -6.902229 6.621253 0.000000 0.000000 0.000000 2.301116 4.432880 15.060845 8.333122 -14.091408 1.031732 15.828290 45.377776 -21.512791 0.000000 0.000000 0.000000 -7.125000 0.000000 0.000000 -13.121059 51.788167 2.225060 0.000000 0.000000 0.000000 -5.677185 5.465520 -0.019843 -9.305516 -15.645981 -1.281289 -11.707493 31.087632 25.988638 0.000000 0.000000 0.000000 7.125000 0.000000 0.000000 19.415308 55.373781 -5.083774
-9.834698 18.037702 1.112617 -479.577032 -88.810578 484.529788 0.000000 0.000000 0.000000 -19.101273 -8.502916 -10.475984 0.786208 5.660511 15.802491 0.084510 -2.374815 -5.179794 0.001985 0.286361 0.786910 0.000000 0.000000 0.000000 16.649623 5.645330 -21.872156 -8.981844 -16.796024 56.027214 0.752001 -15.192212 -4.357082 -0.000034 0.004944 -0.013519 1.818048 -1.586917 -0.549678 1.205483 -2.127239 -0.714666 0.213017 -1.073726 -0.443923 -13.557706 -11.100203 -10.680725 9.576836 -14.204624 10.673777 3.772878 -6.823545 6.651409 0.000000 0.000000 0.000000 2.515205 3.227115 13.038926 8.429641 -14.246822 1.055351 15.968337 44.832711 -21.646080 0.000000 0.000000 0.000000 -7.125000 0.000000 0.000000 -13.038700 51.944379 2.261162 0.000000 0.000000 0.000000 -5.864694 5.057456 0.595399 -9.473539 -15.911932 -1.326959 -11.995147 30.560677 26.190291 0.000000 0.000000 0.000000 7.125000 0.000000 0.000000 19.248103 55.620907 -5.154845
-10.003525 18.040280 1.132455 -485.458718 -88.941058 490.324119 0.000000 0.000000 0.000000 -19.530476 -8.253072 -9.694039 0.775105 5.621193 15.689088 0.102089 -2.499732 -5.684771 0.001576 0.256432 0.704493 0.000000 0.000000 0.000000 16.280751 5.751528 -23.000974 -8.924355 -16.758720 55.828116 0.810689 -15.727390 -4.941547 -0.001611 -0.241505 0.663520 1.613852 -1.731262 -0.480351 1.226270 -2.317415 -0.697811 0.350179 -1.167585 -0.458299 -13.453965 -10.982301 -10.780348 9.460595 -14.042369 10.830599 3.735928 -6.746173 6.682847 0.000000 0.000000 0.000000 2.747368 2.008205 10.891829 8.556017 -14.450042 1.086723 16.104057 44.153423 -21.794436 0.000000 0.000000 0.000000 -7.125000 0.000000 0.000000 -12.966940 52.115226 2.303232 0.000000 0.000000 0.000000 -6.028995 4.606114 1.309056 -9.669221 -16.220390 -1.381179 -12.319416 29.969872 26.384421 0.000000 0.000000 0.000000 7.125000 0.000000 0.000000 19.039003 55.868234 -5.211656
-10.171027 18.041802 1.150579 -492.088451 -89.053455 496.883808 0.000000 0.000000 0.000000 -19.929228 -8.006422 -8.935492 0.763907 5.581279 15.574299 0.121071 -2.625972 -6.186578 0.001088 0.215096 0.590980 0.000000 0.000000 0.000000 15.947352 5.851122 -24.064090 -8.786442 -16.668241 55.348553 0.866095 -16.218834 -5.596486 -0.006019 -0.495915 1.362724 1.411760 -1.875217 -0.419577 1.252994 -2.507469 -0.685285 0.492161 -1.261461 -0.470727 -13.351661 -10.866633 -10.879434 9.349451 -13.883430 10.984797 3.700363 -6.670342 6.714587 0.000000 0.000000 0.000000 2.994576 0.787720 8.650081 8.711547 -14.699539 1.125835 16.236990 43.359816 -21.950815 0.000000 0.000000 0.000000 -7.125000 0.000000 0.000000 -12.901291 52.293689 2.348218 0.000000 0.000000 0.000000 -6.172529 4.127283 2.104529 -9.888587 -16.564996 -1.443077 -12.669452 29.329909 26.565584 0.000000 0.000000 0.000000 7.125000 0.000000 0.000000 18.796112 56.110204 -5.253450
-10.337418 18.042142 1.166769 -499.451896 -89.147511 504.193684 0.000000 0.000000 0.000000 -20.296052 -7.761902 -8.204848 0.752853 5.541775 15.460505 0.141108 -2.754032 -6.676851 0.000656 0.167826 0.461143 0.000000 0.000000 0.000000 15.651507 5.944959 -25.048793 -8.563172 -16.518042 54.566552 0.914959 -16.647762 -6.312132 -0.013833 -0.756911 2.080231 1.211972 -2.018549 -0.369686 1.285492 -2.697187 -0.677177 0.638659 -1.355235 -0.479954 -13.250126 -10.754037 -10.979503 9.242896 -13.729152 11.136660 3.665671 -6.596446 6.747100 0.000000 0.000000 0.000000 3.257666 -0.430246 6.326466 8.901152 -15.002650 1.174428 16.358560 42.452185 -22.118860 0.000000 0.000000 0.000000 -7.125000 0.000000 0.000000 -12.851770 52.482237 2.398864 0.000000 0.000000 0.000000 -6.292533 3.624253 2.983883 -10.133519 -16.948105 -1.513735 -13.038628 28.642450 26.731648 0.000000 0.000000 0.000000 7.125000 0.000000 0.000000 18.523423 56.342029 -5.278818
-10.502862 18.041289 1.181006 -507.347599 -89.223194 512.054893 0.000000 0.000000 0.000000 -20.627918 -7.517560 -7.504340 0.742115 5.503145 15.349223 0.162018 -2.889154 -7.151309 0.000298 0.115766 0.318157 0.000000 0.000000 0.000000 15.395397 6.034954 -25.946379 -8.256387 -16.303922 53.479836 0.954022 -16.997649 -7.074872 -0.025557 -1.026921 2.823024 1.017421 -2.160573 -0.332653 1.323572 -2.885693 -0.673436 0.787543 -1.448489 -0.484873 -13.151323 -10.645503 -11.079090 9.143936 -13.580945 11.284661 3.632946 -6.525244 6.780114 0.000000 0.000000 0.000000 3.536923 -1.640131 3.939682 9.128945 -15.365642 1.234165 16.472832 41.437563 -22.293604 0.000000 0.000000 0.000000 -7.125000 0.000000 0.000000 -12.812622 52.676203 2.452736 0.000000 0.000000 0.000000 -6.386709 3.102856 3.941556 -10.404542 -17.369730 -1.593720 -13.424390 27.917623 26.874950 0.000000 0.000000 0.000000 7.125000 0.000000 0.000000 18.218993 56.557179 -5.283765
-10.667701 18.039398 1.193513 -515.513294 -89.284336 520.204282 0.000000 0.000000 0.000000 -20.929751 -7.274178 -6.829348 0.731639 5.464859 15.239233 0.183448 -3.030315 -7.610098 0.000112 0.056759 0.155982 0.000000 0.000000 0.000000 15.172872 6.122706 -26.765965 -7.882293 -16.031541 52.136975 0.982777 -17.274636 -7.853734 -0.040567 -1.297989 3.569095 0.828775 -2.300950 -0.307477 1.366322 -3.072374 -0.673589 0.937535 -1.540873 -0.485812 -13.055649 -10.541127 -11.179470 9.051741 -13.438800 11.429467 3.602130 -6.456640 6.813912 0.000000 0.000000 0.000000 3.829417 -2.838465 1.519903 9.392418 -15.783539 1.304817 16.583856 40.345798 -22.468736 0.000000 0.000000 0.000000 -7.125000 0.000000 0.000000 -12.777224 52.870219 2.507020 0.000000 0.000000 0.000000 -6.458382 2.570666 4.960495 -10.697895 -17.823633 -1.682360 -13.817698 27.166615 26.992066 0.000000 0.000000 0.000000 7.125000 0.000000 0.000000 17.889689 56.750062 -5.268352
-10.832097 18.036322 1.204194 -523.574427 -89.329909 528.268090 0.000000 0.000000 0.000000 -21.195727 -7.033607 -6.182206 0.721433 5.427513 15.131985 0.205346 -3.175123 -8.053015 0.000024 -0.008067 -0.022101 0.000000 0.000000 0.000000 14.988966 6.211104 -27.498027 -7.442902 -15.692583 50.528168 0.998286 -17.463366 -8.625983 -0.057474 -1.545280 4.250562 0.650502 -2.438168 -0.295298 1.414105 -3.255132 -0.678849 1.086413 -1.631383 -0.483550 -12.963451 -10.442104 -11.278823 8.966579 -13.304176 11.570364 3.573017 -6.391389 6.848221 0.000000 0.000000 0.000000 4.135655 -4.019373 -0.904364 9.696999 -16.264098 1.389058 16.686103 39.187658 -22.643088 0.000000 0.000000 0.000000 -7.125000 0.000000 0.000000 -12.750432 53.062245 2.562025 0.000000 0.000000 0.000000 -6.504816 2.033766 6.040232 -11.015592 -18.311968 -1.780939 -14.211617 26.394757 27.076334 0.000000 0.000000 0.000000 7.125000 0.000000 0.000000 17.537802 56.912153 -5.229561
-10.996182 18.032134 1.213146 -531.369459 -89.364030 536.084220 0.000000 0.000000 0.000000 -21.430752 -6.797769 -5.560924 0.711707 5.391461 15.028610 0.227727 -3.321865 -8.480126 0.000161 -0.079185 -0.217614 0.000000 0.000000 0.000000 14.837199 6.301493 -28.154021 -6.955909 -15.292755 48.704030 1.000602 -17.565190 -9.362948 -0.074757 -1.762309 4.849332 0.481232 -2.571480 -0.295348 1.466121 -3.432948 -0.689291 1.234065 -1.719509 -0.478587 -12.874552 -10.348668 -11.377145 8.886831 -13.177648 11.707939 3.545189 -6.329923 6.883135 0.000000 0.000000 0.000000 4.452405 -5.178098 -3.313411 10.042500 -16.805830 1.487448 16.779054 37.981248 -22.815517 0.000000 0.000000 0.000000 -7.125000 0.000000 0.000000 -12.732543 53.250666 2.617468 0.000000 0.000000 0.000000 -6.529206 1.498480 7.167271 -11.355319 -18.830562 -1.889190 -14.595849 25.612124 27.134908 0.000000 0.000000 0.000000 7.125000 0.000000 0.000000 17.178873 57.048520 -5.175219
-11.160289 18.026907 1.220561 -538.847851 -89.388370 543.600050 0.000000 0.000000 0.000000 -21.639915 -6.566898 -4.962603 0.702479 5.357162 14.930007 0.250357 -3.467655 -8.893181 0.000589 -0.156837 -0.431005 0.000000 0.000000 0.000000 14.712819 6.395149 -28.742779 -6.437070 -14.838619 46.710982 0.992400 -17.593833 -10.020182 -0.090990 -1.944900 5.353414 0.320217 -2.699816 -0.305657 1.520918 -3.604282 -0.704482 1.379369 -1.804455 -0.472034 -12.790813 -10.260988 -11.474201 8.814678 -13.059084 11.840817 3.519591 -6.272017 6.918308 0.000000 0.000000 0.000000 4.777313 -6.312813 -5.687168 10.427105 -17.404736 1.600327 16.866033 36.748108 -22.982265 0.000000 0.000000 0.000000 -7.125000 0.000000 0.000000 -12.718451 53.432574 2.671548 0.000000 0.000000 0.000000 -6.533697 0.968732 8.328351 -11.714003 -19.374259 -2.006465 -14.966609 24.826178 27.167190 0.000000 0.000000 0.000000 7.125000 0.000000 0.000000 16.816697 57.157881 -5.106702
